<?xml version="1.0" encoding="utf-8"?>
<!-- Generator: Adobe Illustrator 24.0.1, SVG Export Plug-In . SVG Version: 6.00 Build 0)  -->
<svg version="1.1" id="Layer_1" xmlns="http://www.w3.org/2000/svg" xmlns:xlink="http://www.w3.org/1999/xlink" x="0px" y="0px"
	 viewBox="0 0 855.29 302" enable-background="new 0 0 855.29 302" xml:space="preserve">
<g>
	<path fill="#FFFFFF" d="M204,208.35v51.58c0,7.16-5.16,13.46-12.26,14.44c-9.23,1.28-16.74-5.44-16.74-14.34V99.83
		c0-7.16,5.16-13.46,12.26-14.44c9.23-1.28,16.74,5.44,16.74,14.34v1.85c11.6-10.55,26.89-16.61,43.76-16.61
		c37.96,0,66.7,30.85,66.7,69.86c0,39.02-28.74,69.86-66.7,69.86C230.89,224.7,215.6,218.63,204,208.35z M284.17,155.15
		c0-24.21-17.7-42.43-40.09-42.43c-21.87,0-39.31,17.44-40.09,40.61v1.82c0,24.21,17.7,42.43,40.09,42.43
		S284.17,179.36,284.17,155.15z"/>
	<path fill="#FFFFFF" d="M444,208.67c-11.6,10.28-26.89,16.34-43.76,16.34c-37.96,0-66.7-30.85-66.7-69.86
		c0-39.02,28.74-69.86,66.7-69.86c16.87,0,32.16,6.06,43.76,16.61v-8.05c0-1.14,0.51-2.23,1.39-2.97
		c13.35-11.2,27.61-3.09,27.61,9.17v116.13c0,1.1-0.47,2.15-1.29,2.89C458.33,231,444,222.28,444,209.99V208.67z M444,155.15v-1.82
		c-1.04-23.17-18.22-40.61-40.09-40.61c-22.39,0-40.09,18.22-40.09,42.43c0,24.21,17.7,42.43,40.09,42.43S444,179.36,444,155.15z"/>
	<path fill="#FFFFFF" d="M506,50.28c0-8.91,7.52-15.62,16.74-14.34c7.1,0.98,12.26,7.28,12.26,14.44V210.4
		c0,7.16-5.13,13.45-12.21,14.49c-9.25,1.36-16.79-5.67-16.79-14.59V50.28z M545.1,165.04c-2.08-2.86-3.9-6.51-3.9-10.67
		c0-3.12,1.56-7.29,3.9-9.89l44.77-53.36c2.86-3.12,5.73-4.69,9.89-4.69c7.55,0,13.54,5.47,13.54,13.02c0,3.12-0.78,5.99-3.12,8.59
		l-37.74,45.03l39.83,47.11c2.08,2.6,3.38,6.25,3.38,9.37c0,8.07-7.03,14.32-14.58,14.32c-3.91,0-8.07-1.82-10.67-5.21L545.1,165.04
		z"/>
	<path fill="#FFFFFF" d="M628.39,155.15c0-38.52,29.41-68.98,68.98-68.98c20.3,0,36.18,8.07,45.03,16.14
		c3.12,2.86,5.21,6.77,5.21,10.93c0,3.64-1.04,6.77-4.17,10.41l-40.09,47.63c-2.86,3.38-5.99,4.69-9.89,4.69
		c-7.81,0-13.54-5.47-13.54-13.01c0-3.12,0.78-6.25,3.12-8.59l31.5-36.96c-4.43-3.12-11.45-4.69-17.18-4.69
		c-22.39,0-40.09,18.74-40.09,42.43c0,23.43,17.44,42.43,40.09,42.43c12.23,0,21.34-5.21,27.59-11.71c4.17-3.38,7.03-6.51,12.5-6.51
		c8.07,0,14.06,5.73,14.06,13.8c0,2.86-1.56,6.51-4.17,9.37c-9.89,11.97-27.85,21.6-49.98,21.6
		C658.06,224.13,628.39,193.67,628.39,155.15z"/>
	<path fill="#FFFFFF" d="M772.7,116c-6.44,0-12.68-5.18-13.51-11.57C758.07,95.82,764.52,89,772.51,89H782V69.18
		c0-7.16,5.16-13.45,12.25-14.44c9.23-1.29,16.75,5.45,16.75,14.4V89h30.85c7.99,0,14.44,6.82,13.32,15.43
		c-0.83,6.38-7.07,11.57-13.51,11.57H811v47.91c0,23.23,12.85,35.14,30.71,35.21c6.19,0.02,11.79,4.04,13.19,10.07
		c2.13,9.21-4.6,17.19-13.05,17.19c-34.01,0-59.85-24.09-59.85-62.47V116H772.7z"/>
</g>
<path fill="#FF0000" d="M68.97,302H17.03C7.66,302,0,294.34,0,284.97v-51.94C0,223.66,7.66,216,17.03,216h51.94
	c9.37,0,17.03,7.66,17.03,17.03v51.94C86,294.34,78.34,302,68.97,302z"/>
<path fill="#FCEE21" d="M68.97,194H17.03C7.66,194,0,186.34,0,176.97v-51.94C0,115.66,7.66,108,17.03,108h51.94
	c9.37,0,17.03,7.66,17.03,17.03v51.94C86,186.34,78.34,194,68.97,194z"/>
<path fill="#0084FF" d="M68.97,86H17.03C7.66,86,0,78.34,0,68.97V17.03C0,7.66,7.66,0,17.03,0h51.94C78.34,0,86,7.66,86,17.03v51.94
	C86,78.34,78.34,86,68.97,86z"/>
</svg>
