<svg xmlns="http://www.w3.org/2000/svg" viewBox="0 0 1313.52 185"><path d="M124.85,127.24V158.5a8.77,8.77,0,0,1-17.54,0V61.55a8.77,8.77,0,0,1,17.54,0v1.11a39,39,0,0,1,26.47-10c23,0,40.34,18.65,40.34,42.25s-17.38,42.26-40.34,42.26A39.62,39.62,0,0,1,124.85,127.24ZM174,94.87c0-14.83-10.84-26-24.55-26-13.4,0-24.08,10.68-24.56,24.88v1.11c0,14.83,10.84,26,24.56,26S174,109.7,174,94.87Z" fill="#fff"/><path d="M272.18,127.24a39.6,39.6,0,0,1-26.47,9.89c-23,0-40.34-18.66-40.34-42.26s17.38-42.25,40.34-42.25a38.94,38.94,0,0,1,26.47,10V61.55a8.77,8.77,0,0,1,17.54,0V128a8.77,8.77,0,1,1-17.54,0Zm0-32.37V93.76c-.64-14.2-11.16-24.88-24.55-24.88-13.72,0-24.56,11.16-24.56,26s10.84,26,24.56,26S272.18,109.7,272.18,94.87Z" fill="#fff"/><path d="M310.13,31.25a8.77,8.77,0,0,1,17.54,0V128a8.77,8.77,0,1,1-17.54,0Zm23.92,69.68a11.21,11.21,0,0,1-2.39-6.54,10,10,0,0,1,2.39-6.06l27.42-32.68a7.62,7.62,0,0,1,6.06-2.87,8,8,0,0,1,8.29,8A7.41,7.41,0,0,1,373.91,66L350.79,93.6l24.4,28.86a9.74,9.74,0,0,1,2.07,5.74,9,9,0,0,1-8.93,8.77,8.41,8.41,0,0,1-6.54-3.19Z" fill="#fff"/><path d="M385.07,94.87c0-23.6,18-42.25,42.26-42.25,12.43,0,22.16,4.94,27.58,9.88a8.92,8.92,0,0,1,.64,13.08L431,104.76a7.36,7.36,0,0,1-6.05,2.87c-4.79,0-8.3-3.35-8.3-8a7.2,7.2,0,0,1,1.92-5.27l19.29-22.64c-2.71-1.91-7-2.87-10.52-2.87-13.72,0-24.56,11.48-24.56,26,0,14.35,10.68,26,24.56,26a22.9,22.9,0,0,0,16.9-7.17c2.55-2.07,4.3-4,7.65-4a8.25,8.25,0,0,1,8.61,8.45,9.19,9.19,0,0,1-2.55,5.74c-6.06,7.34-17.06,13.24-30.61,13.24C403.25,137.13,385.07,118.47,385.07,94.87Z" fill="#fff"/><path d="M465.12,62.34a8.06,8.06,0,0,1,8.13-8.13H479v-12a8.77,8.77,0,1,1,17.54,0v12h18.66a8.07,8.07,0,0,1,8.13,8.13,8.17,8.17,0,0,1-8.13,8.14H496.53V99.34c0,14,7.81,21.2,18.66,21.2a8.22,8.22,0,0,1,0,16.43c-20.57,0-36.2-14.51-36.2-37.63V70.48h-5.74A8.16,8.16,0,0,1,465.12,62.34Z" fill="#fff"/><rect y="132.32" width="52.68" height="52.68" rx="10.43" fill="red"/><rect y="66.16" width="52.68" height="52.68" rx="10.43" fill="#fcee21"/><rect width="52.68" height="52.68" rx="10.43" fill="#0084ff"/><path d="M617,71.87H603.15v54.25h-5.37V71.87H586.84V68.72l10.94-2V62.17q0-10.85,4-15.91t13-5.07a34,34,0,0,1,9.76,1.46l-1.25,4.66A28.83,28.83,0,0,0,614.7,46q-6.3,0-8.92,3.71t-2.63,12.06v5.48H617Z" fill="#fff"/><path d="M677.14,96.58q0,14.43-7,22.52t-19.29,8.11a25,25,0,0,1-13.66-3.74,23.91,23.91,0,0,1-9.05-10.73A39,39,0,0,1,625,96.58q0-14.42,7-22.46t19.18-8.05q12.15,0,19.06,8.16T677.14,96.58Zm-46.51,0q0,12.15,5.34,19t15.09,6.8q9.77,0,15.1-6.8t5.34-19q0-12.19-5.39-18.91T651,71q-9.76,0-15,6.69T630.63,96.58Z" fill="#fff"/><path d="M716.65,66.07a45.69,45.69,0,0,1,8,.76l-1,5.15a31.1,31.1,0,0,0-7.64-.92,14.86,14.86,0,0,0-12.36,6.39q-4.83,6.39-4.82,16.15v32.52h-5.37V67.21H698l.55,10.62h.37q3.65-6.51,7.76-9.13A18.16,18.16,0,0,1,716.65,66.07Z" fill="#fff"/><path d="M827,85.74q0,20-10.46,30.17t-30.73,10.21h-19V46.88h21.41q19,0,28.86,9.92T827,85.74ZM821,86q0-17-8.65-25.61T787,51.76H772.37v69.49h13.12Q821,121.25,821,86Z" fill="#fff"/><path d="M867.65,127.21q-12.84,0-20-7.92t-7.18-22.16q0-14.1,6.93-22.58t18.7-8.48q10.41,0,16.43,7.26t6,19.73V97.4H846.08q.1,12.13,5.67,18.53t15.9,6.4a48.5,48.5,0,0,0,8.87-.71,53.38,53.38,0,0,0,9.67-3v4.88a43.07,43.07,0,0,1-9.21,3A50.66,50.66,0,0,1,867.65,127.21Zm-1.57-56.37q-8.51,0-13.66,5.61t-6,16.18h36.42q0-10.25-4.44-16T866.08,70.84Z" fill="#fff"/><path d="M917.68,126.12,894.92,67.21h5.53l15.23,40.05a123.59,123.59,0,0,1,4.55,13.44h.33q2.22-7.36,4.55-13.55l15.23-39.94h5.53L923.1,126.12Z" fill="#fff"/><path d="M979.53,127.21q-12.85,0-20-7.92t-7.18-22.16q0-14.1,6.93-22.58T978,66.07q10.41,0,16.43,7.26t6,19.73V97.4H958q.12,12.13,5.67,18.53t15.91,6.4a48.38,48.38,0,0,0,8.86-.71,53.14,53.14,0,0,0,9.67-3v4.88a43.07,43.07,0,0,1-9.21,3A50.63,50.63,0,0,1,979.53,127.21ZM978,70.84q-8.51,0-13.65,5.61t-6,16.18H994.7q0-10.25-4.44-16T978,70.84Z" fill="#fff"/><path d="M1022,126.12h-5.37V41.79H1022Z" fill="#fff"/><path d="M1090.48,96.58q0,14.43-7,22.52t-19.3,8.11a25,25,0,0,1-13.66-3.74,23.91,23.91,0,0,1-9-10.73,39,39,0,0,1-3.14-16.16q0-14.42,7-22.46t19.18-8.05q12.15,0,19.06,8.16T1090.48,96.58Zm-46.51,0q0,12.15,5.34,19t15.1,6.8q9.75,0,15.09-6.8t5.34-19q0-12.19-5.39-18.91T1064.3,71q-9.77,0-15,6.69T1044,96.58Z" fill="#fff"/><path d="M1132,127.21q-13.61,0-19.84-10.19h-.38l.16,4.55c.15,2.68.22,5.6.22,8.78v22.44h-5.37V67.21h4.56l1,8.4h.32q6.08-9.54,19.4-9.54,11.93,0,18.19,7.83t6.26,22.79q0,14.53-6.59,22.52T1132,127.21Zm-.11-4.77q9,0,14-6.72t5-18.81q0-26-18.76-26-10.29,0-15.12,5.66t-4.82,18.46V96.8q0,13.83,4.63,19.73T1131.89,122.44Z" fill="#fff"/><path d="M1196.66,127.21q-12.86,0-20-7.92t-7.18-22.16q0-14.1,6.94-22.58t18.7-8.48q10.4,0,16.42,7.26t6,19.73V97.4h-42.44q.11,12.13,5.66,18.53t15.91,6.4a48.38,48.38,0,0,0,8.86-.71,53.44,53.44,0,0,0,9.68-3v4.88a43.32,43.32,0,0,1-9.22,3A50.63,50.63,0,0,1,1196.66,127.21Zm-1.57-56.37q-8.52,0-13.66,5.61t-6,16.18h36.42q0-10.25-4.44-16T1195.09,70.84Z" fill="#fff"/><path d="M1257,66.07a45.79,45.79,0,0,1,8,.76L1264,72a31.18,31.18,0,0,0-7.65-.92A14.83,14.83,0,0,0,1244,77.45q-4.83,6.39-4.83,16.15v32.52h-5.36V67.21h4.55l.54,10.62h.38q3.63-6.51,7.75-9.13A18.18,18.18,0,0,1,1257,66.07Z" fill="#fff"/><path d="M1313.52,110.79q0,7.9-6,12.16t-17.07,4.26q-11.82,0-18.76-3.63v-5.8a41.45,41.45,0,0,0,18.76,4.44q8.71,0,13.25-2.9t4.53-7.72a9.43,9.43,0,0,0-3.61-7.48q-3.6-3-11.84-6-8.84-3.21-12.41-5.51a17.08,17.08,0,0,1-5.4-5.2,13.06,13.06,0,0,1-1.81-7.07,12.08,12.08,0,0,1,5.55-10.46q5.57-3.86,15.53-3.85a46.39,46.39,0,0,1,18.1,3.58l-2,4.87a42.54,42.54,0,0,0-16.1-3.57q-7.2,0-11.44,2.38c-2.81,1.59-4.22,3.8-4.22,6.61a9.16,9.16,0,0,0,3.28,7.38q3.27,2.76,12.81,6.18a62.9,62.9,0,0,1,11.6,5.17,16.93,16.93,0,0,1,5.45,5.23A12.81,12.81,0,0,1,1313.52,110.79Z" fill="#fff"/></svg>